# xmcd
#
# Track frame offsets:
#	150
#	12154
#	21893
#	32625
#	42965
#	56471
#	71106
#	89367
#	107332
#	119430
#	123601
#	136108
#	154244
#	170158
#	180477
#	195123
#	207322
#	223215
#	242274
#	257265
#
# Disc length: 3607 seconds
# Revision: 0
# Processed by: cddbd v1.5.2PL0 Copyright (c) Steve Scherf et al.
# Submitted via: dBpowerAMP V12.0
#
DISCID=0d0e1514
DTITLE=Psalty and The Kids' Praise! Kids - Psalty Kids Songs
DYEAR=1900
DGENRE=Gospel
TTITLE0=Seek Ye First
TTITLE1=Behold What Manner Of Love
TTITLE2=Beloved, Let Us Love One Another
TTITLE3=Father I Adore You
TTITLE4=Praise The Lord Together
TTITLE5=Just Like You
TTITLE6=I Love You Lord
TTITLE7=Welcome To The Family
TTITLE8=Beautiful
TTITLE9=Make Me A Servant
TTITLE10=Jesus Put The Song In My Heart
TTITLE11=One Step At A Time
TTITLE12=All Through The Day
TTITLE13=John 3:16
TTITLE14=Child Of The King
TTITLE15=Be Thankful
TTITLE16=My Hands Are The Hands
TTITLE17=This Little Light Of Mine
TTITLE18=Heart To Change The World
TTITLE19=Into My Heart
EXTD=
EXTT0=
EXTT1=
EXTT2=
EXTT3=
EXTT4=
EXTT5=
EXTT6=
EXTT7=
EXTT8=
EXTT9=
EXTT10=
EXTT11=
EXTT12=
EXTT13=
EXTT14=
EXTT15=
EXTT16=
EXTT17=
EXTT18=
EXTT19=
PLAYORDER=
